<svg width="1920" height="1047" viewBox="0 0 1920 1047" fill="none" xmlns="http://www.w3.org/2000/svg">
<mask id="mask0_0_1" style="mask-type:alpha" maskUnits="userSpaceOnUse" x="0" y="-33" width="1920" height="1080">
<path d="M0 -33H1920V1047H0V-33Z" fill="white"/>
</mask>
<g mask="url(#mask0_0_1)">
<path d="M0 0H1920V1080H0V0Z" fill="white"/>
<path d="M885 299L951 337V413L885 451L819 413V337L885 299Z" fill="#E0DADA"/>
<path d="M580 299L646 337V413L580 451L514 413V337L580 299Z" fill="#FCF8F8"/>
<path d="M1494 299L1559 337V413L1494 451L1428 413V337L1494 299Z" fill="#FCF8F8"/>
<path d="M1950 299L2015 337V413L1950 451L1884 413V337L1950 299Z" fill="#FCF8F8"/>
<path d="M275 299L341 337V413L275 451L209 413V337L275 299Z" fill="#FCF8F8"/>
<path d="M1189 299L1254 337V413L1189 451L1123 413V337L1189 299Z" fill="#FCF8F8"/>
<path d="M1645 299L1710 337V413L1645 451L1579 413V337L1645 299Z" fill="#FCF8F8"/>
<path d="M-29 299L36 337V413L-29 451L-95 413V337L-29 299Z" fill="#FCF8F8"/>
<path d="M886 562L951 600V676L886 714L820 676V600L886 562Z" fill="#E0DADA"/>
<path d="M581 562L646 600V676L581 714L515 676V600L581 562Z" fill="#FCF8F8"/>
<path d="M1494 562L1560 600V676L1494 714L1428 676V600L1494 562Z" fill="#FCF8F8"/>
<path d="M1950 562L2016 600V676L1950 714L1884 676V600L1950 562Z" fill="#FCF8F8"/>
<path d="M276 562L341 600V676L276 714L210 676V600L276 562Z" fill="#FCF8F8"/>
<path d="M1189 562L1255 600V676L1189 714L1123 676V600L1189 562Z" fill="#FCF8F8"/>
<path d="M1645 562L1711 600V676L1645 714L1579 676V600L1645 562Z" fill="#FCF8F8"/>
<path d="M-29 562L36 600V676L-29 714L-94 676V600L-29 562Z" fill="#FCF8F8"/>
<path d="M809 431L874 469V545L809 583L743 545V469L809 431Z" fill="#E0DADA"/>
<path d="M504 431L569 469V545L504 583L438 545V469L504 431Z" fill="#FCF8F8"/>
<path d="M1417 431L1483 469V545L1417 583L1351 545V469L1417 431Z" fill="#FCF8F8"/>
<path d="M1873 431L1939 469V545L1873 583L1807 545V469L1873 431Z" fill="#FCF8F8"/>
<path d="M199 431L264 469V545L199 583L133 545V469L199 431Z" fill="#FCF8F8"/>
<path d="M1037 299L1102 337V413L1037 451L971 413V337L1037 299Z" fill="#E0DADA"/>
<path d="M732 299L797 337V413L732 451L666 413V337L732 299Z" fill="#FCF8F8"/>
<path d="M427 299L492 337V413L427 451L361 413V337L427 299Z" fill="#FCF8F8"/>
<path d="M1340 299L1406 337V413L1340 451L1274 413V337L1340 299Z" fill="#FCF8F8"/>
<path d="M1796 299L1862 337V413L1796 451L1730 413V337L1796 299Z" fill="#FCF8F8"/>
<path d="M122 299L187 337V413L122 451L56 413V337L122 299Z" fill="#FCF8F8"/>
<path d="M1037 562L1103 600V676L1037 714L971 676V600L1037 562Z" fill="#E0DADA"/>
<path d="M732 562L798 600V676L732 714L666 676V600L732 562Z" fill="#FCF8F8"/>
<path d="M427 562L493 600V676L427 714L361 676V600L427 562Z" fill="#FCF8F8"/>
<path d="M1341 562L1407 600V676L1341 714L1275 676V600L1341 562Z" fill="#FCF8F8"/>
<path d="M1797 562L1863 600V676L1797 714L1731 676V600L1797 562Z" fill="#FCF8F8"/>
<path d="M122 562L188 600V676L122 714L56 676V600L122 562Z" fill="#FCF8F8"/>
<path d="M960 431L1026 469V545L960 583L894 545V469L960 431Z" fill="#E0DADA"/>
<path d="M655 431L721 469V545L655 583L589 545V469L655 431Z" fill="#FCF8F8"/>
<path d="M1569 431L1635 469V545L1569 583L1503 545V469L1569 431Z" fill="#FCF8F8"/>
<path d="M350 431L416 469V545L350 583L284 545V469L350 431Z" fill="#FCF8F8"/>
<path d="M1264 431L1330 469V545L1264 583L1198 545V469L1264 431Z" fill="#FCF8F8"/>
<path d="M1720 431L1786 469V545L1720 583L1654 545V469L1720 431Z" fill="#FCF8F8"/>
<path d="M45 431L111 469V545L45 583L-20 545V469L45 431Z" fill="#FCF8F8"/>
<path d="M1052 472L1112 437L1173 472V541L1112 576L1052 541V472Z" stroke="#E0DADA" stroke-width="11"/>
<path d="M1123 492C1123 489 1122 487 1120 486C1118 484 1116 483 1112 483C1110 483 1108 484 1107 484C1105 485 1104 486 1103 487C1102 488 1102 489 1102 490C1102 491 1102 492 1103 493C1103 494 1104 495 1105 495C1106 496 1107 496 1108 497C1109 497 1111 498 1113 498L1119 500C1122 500 1126 501 1128 503C1131 504 1133 506 1135 507C1137 509 1139 511 1140 514C1141 516 1141 518 1141 521C1141 526 1140 530 1138 533C1135 537 1132 539 1128 541C1123 543 1118 543 1112 543C1106 543 1101 543 1096 541C1092 539 1088 536 1086 532C1083 529 1082 524 1082 518H1099C1099 521 1100 523 1101 524C1102 526 1103 527 1105 528C1107 528 1109 529 1112 529C1114 529 1116 529 1118 528C1120 527 1121 526 1122 525C1123 524 1123 523 1123 521C1123 520 1123 519 1122 518C1121 517 1120 516 1118 515C1117 515 1114 514 1112 513L1104 511C1098 510 1093 508 1089 505C1086 501 1084 497 1084 491C1084 487 1085 483 1087 480C1090 476 1093 474 1098 472C1102 470 1107 469 1112 469C1118 469 1123 470 1127 472C1131 474 1134 476 1137 480C1139 483 1140 487 1140 492H1123Z" fill="#E0DADA"/>
</g>
</svg>
