<svg width="1920" height="1047" viewBox="0 0 1920 1047" fill="none" xmlns="http://www.w3.org/2000/svg">
<mask id="mask0_0_1" style="mask-type:alpha" maskUnits="userSpaceOnUse" x="0" y="-33" width="1920" height="1080">
<path d="M0 -33H1920V1047H0V-33Z" fill="white"/>
</mask>
<g mask="url(#mask0_0_1)">
<path d="M0 0H1920V1080H0V0Z" fill="white"/>
<path d="M885 299L951 337V413L885 451L819 413V337L885 299Z" fill="#E0DADA"/>
<path d="M580 299L646 337V413L580 451L514 413V337L580 299Z" fill="#ECE7E7"/>
<path d="M1494 299L1559 337V413L1494 451L1428 413V337L1494 299Z" fill="#EFE9E9"/>
<path d="M1950 299L2015 337V413L1950 451L1884 413V337L1950 299Z" fill="#FCF8F8"/>
<path d="M275 299L341 337V413L275 451L209 413V337L275 299Z" fill="#F4EDED"/>
<path d="M1189 299L1254 337V413L1189 451L1123 413V337L1189 299Z" fill="#E6E0E0"/>
<path d="M1645 299L1710 337V413L1645 451L1579 413V337L1645 299Z" fill="#F4EDED"/>
<path d="M-29 299L36 337V413L-29 451L-95 413V337L-29 299Z" fill="#FCF8F8"/>
<path d="M886 562L951 600V676L886 714L820 676V600L886 562Z" fill="#E0DADA"/>
<path d="M581 562L646 600V676L581 714L515 676V600L581 562Z" fill="#ECE7E7"/>
<path d="M1494 562L1560 600V676L1494 714L1428 676V600L1494 562Z" fill="#EFE9E9"/>
<path d="M1950 562L2016 600V676L1950 714L1884 676V600L1950 562Z" fill="#FCF8F8"/>
<path d="M276 562L341 600V676L276 714L210 676V600L276 562Z" fill="#F4EDED"/>
<path d="M1189 562L1255 600V676L1189 714L1123 676V600L1189 562Z" fill="#E6E0E0"/>
<path d="M1645 562L1711 600V676L1645 714L1579 676V600L1645 562Z" fill="#F4EDED"/>
<path d="M-29 562L36 600V676L-29 714L-94 676V600L-29 562Z" fill="#FCF8F8"/>
<path d="M809 431L874 469V545L809 583L743 545V469L809 431Z" fill="#E0DADA"/>
<path d="M504 431L569 469V545L504 583L438 545V469L504 431Z" fill="#ECE7E7"/>
<path d="M1418 431L1483 469V545L1418 583L1352 545V469L1418 431Z" fill="#ECE7E7"/>
<path d="M1873 431L1939 469V545L1873 583L1807 545V469L1873 431Z" fill="#FCF8F8"/>
<path d="M199 431L264 469V545L199 583L133 545V469L199 431Z" fill="#F4EDED"/>
<path d="M1037 299L1102 337V413L1037 451L971 413V337L1037 299Z" fill="#E0DADA"/>
<path d="M732 299L797 337V413L732 451L666 413V337L732 299Z" fill="#E6E0E0"/>
<path d="M427 299L492 337V413L427 451L361 413V337L427 299Z" fill="#EFE9E9"/>
<path d="M1340 299L1406 337V413L1340 451L1274 413V337L1340 299Z" fill="#ECE7E7"/>
<path d="M1796 299L1862 337V413L1796 451L1730 413V337L1796 299Z" fill="#FCF8F8"/>
<path d="M122 299L187 337V413L122 451L56 413V337L122 299Z" fill="#FCF8F8"/>
<path d="M1037 562L1103 600V676L1037 714L971 676V600L1037 562Z" fill="#E0DADA"/>
<path d="M732 562L798 600V676L732 714L666 676V600L732 562Z" fill="#E6E0E0"/>
<path d="M427 562L493 600V676L427 714L361 676V600L427 562Z" fill="#EFE9E9"/>
<path d="M1341 562L1406 600V676L1341 714L1275 676V600L1341 562Z" fill="#ECE7E7"/>
<path d="M1797 562L1863 600V676L1797 714L1731 676V600L1797 562Z" fill="#FCF8F8"/>
<path d="M122 562L188 600V676L122 714L56 676V600L122 562Z" fill="#FCF8F8"/>
<path d="M1114 431L1179 469V545L1114 583L1048 545V469L1114 431Z" fill="#E0DADA"/>
<path d="M655 431L721 469V545L655 583L589 545V469L655 431Z" fill="#E6E0E0"/>
<path d="M1569 431L1635 469V545L1569 583L1503 545V469L1569 431Z" fill="#EFE9E9"/>
<path d="M350 431L416 469V545L350 583L284 545V469L350 431Z" fill="#EFE9E9"/>
<path d="M1264 431L1330 469V545L1264 583L1198 545V469L1264 431Z" fill="#E6E0E0"/>
<path d="M1720 431L1786 469V545L1720 583L1654 545V469L1720 431Z" fill="#F4EDED"/>
<path d="M45 431L111 469V545L45 583L-20 545V469L45 431Z" fill="#FCF8F8"/>
<path d="M899 472L959 437L1020 472V541L959 576L899 541V472Z" stroke="#E0DADA" stroke-width="11"/>
<path d="M970 492C970 489 969 487 967 486C965 484 963 483 959 483C957 483 955 484 954 484C952 485 951 486 950 487C949 488 949 489 949 490C949 491 949 492 950 493C950 494 951 495 952 495C953 496 954 496 955 497C956 497 958 498 960 498L966 500C969 500 973 501 975 503C978 504 980 506 982 507C984 509 986 511 987 514C988 516 988 518 988 521C988 526 987 530 985 533C982 537 979 539 975 541C970 543 965 543 959 543C953 543 948 543 943 541C939 539 935 536 933 532C930 529 929 524 929 518H946C946 521 947 523 948 524C949 526 950 527 952 528C954 528 956 529 959 529C961 529 963 529 965 528C967 527 968 526 969 525C970 524 970 523 970 521C970 520 970 519 969 518C968 517 967 516 965 515C963 515 961 514 959 513L951 511C945 510 940 508 936 505C933 501 931 497 931 491C931 487 932 483 934 480C937 476 940 474 945 472C949 470 954 469 959 469C965 469 970 470 974 472C978 474 981 476 984 480C986 483 987 487 987 492H970Z" fill="#E0DADA"/>
</g>
</svg>
