<svg width="1920" height="1080" viewBox="0 0 1920 1080" fill="none" xmlns="http://www.w3.org/2000/svg">
<rect width="1920" height="1080" fill="black"/>
<rect width="1920" height="1080" fill="white"/>
<mask id="mask0_0_1" style="mask-type:alpha" maskUnits="userSpaceOnUse" x="0" y="0" width="1920" height="1080">
<rect width="1920" height="1080" fill="white"/>
</mask>
<g mask="url(#mask0_0_1)">
<path d="M156 40L307 127V301L156 388L5 301V127L156 40Z" fill="#E0DADA"/>
<path d="M157 642L308 729V903L157 991L7 903V729L157 642Z" fill="#E0DADA"/>
<path d="M-17 342L133 429V603L-17 690L-168 603V429L-17 342Z" fill="#E0DADA"/>
<path d="M195 438L330 360L465 438V594L330 672L195 594V438Z" stroke="#E0DADA" stroke-width="32"/>
<path d="M353 487C353 481 351 477 347 475C343 472 338 470 331 470C326 470 323 471 320 472C317 473 314 475 313 477C311 479 310 481 310 484C310 486 311 488 312 490C313 491 314 493 316 494C318 495 320 496 323 497C325 498 328 499 332 500L344 503C351 504 358 506 363 509C369 511 373 515 377 518C381 522 384 526 386 531C388 535 389 540 389 546C389 555 386 563 382 570C377 577 371 582 362 585C353 589 343 590 331 590C319 590 308 589 299 585C290 581 283 576 278 568C273 561 270 551 270 540H304C304 545 306 549 308 552C310 555 313 557 317 559C321 560 325 561 331 561C335 561 339 561 343 559C346 558 349 556 350 554C352 552 353 549 353 546C353 543 352 541 351 539C349 537 346 536 343 534C339 533 335 531 330 530L315 526C302 524 292 519 285 513C278 506 274 497 274 486C274 477 276 469 281 463C286 456 293 451 302 447C310 443 320 441 331 441C342 441 352 443 360 447C369 451 375 456 380 463C384 470 387 478 387 487H353Z" fill="#E0DADA"/>
</g>
<path d="M746 545V486H760V533H784V545H746ZM804 545C801 545 798 545 796 544C794 543 793 541 791 540C790 538 789 535 789 532C789 530 790 528 791 526C792 525 793 523 794 522C796 521 797 520 799 520C801 519 803 519 806 519C808 519 810 518 812 518C813 518 814 517 815 517C816 516 816 516 816 515V515C816 513 815 512 814 511C813 511 812 510 810 510C809 510 807 511 806 511C805 512 804 513 804 515L791 514C791 512 792 509 794 507C796 505 798 503 800 502C803 501 807 500 811 500C813 500 816 501 818 501C821 502 823 503 824 504C826 505 827 507 828 509C829 510 830 513 830 515V545H817V538H816C816 540 815 541 813 542C812 543 811 544 809 544C808 545 806 545 804 545ZM808 536C810 536 811 536 812 535C813 535 814 534 815 533C816 532 816 530 816 529V525C816 525 815 525 815 525C814 526 813 526 813 526C812 526 811 526 811 526C810 526 809 527 809 527C807 527 806 527 805 528C804 528 804 529 803 529C803 530 803 531 803 532C803 533 803 534 804 535C805 536 806 536 808 536ZM838 545V486H852V508H853C853 507 854 506 855 505C856 503 857 502 859 501C861 501 863 500 865 500C868 500 871 501 873 503C876 504 878 507 880 510C881 513 882 518 882 523C882 528 881 532 880 535C878 538 876 541 874 543C871 544 868 545 865 545C863 545 861 545 859 544C857 543 856 542 855 541C854 540 853 539 853 537H852V545H838ZM852 523C852 525 852 527 853 529C854 531 854 532 856 533C857 534 858 534 860 534C862 534 863 534 864 533C866 532 866 531 867 529C868 527 868 525 868 523C868 520 868 518 867 517C866 515 866 514 864 513C863 512 862 511 860 511C858 511 857 512 856 513C854 513 854 515 853 517C852 518 852 520 852 523ZM910 545C905 545 901 544 898 543C895 541 892 538 890 535C889 531 888 527 888 523C888 518 889 514 890 511C892 508 895 505 898 503C901 501 905 500 910 500C914 500 918 501 922 503C925 505 927 508 929 511C931 514 932 518 932 523C932 527 931 531 929 535C927 538 925 541 922 543C918 544 914 545 910 545ZM910 535C912 535 913 534 914 533C915 532 916 531 917 529C917 527 918 525 918 523C918 520 917 518 917 516C916 515 915 513 914 512C913 511 912 511 910 511C908 511 907 511 906 512C904 513 904 515 903 516C902 518 902 520 902 523C902 525 902 527 903 529C904 531 904 532 906 533C907 534 908 535 910 535ZM939 545V501H953V509H953C954 506 955 504 957 502C959 501 961 500 963 500C964 500 964 500 965 500C966 500 966 501 967 501V513C966 513 966 512 964 512C963 512 962 512 962 512C960 512 958 512 957 513C956 514 955 515 954 516C953 518 953 519 953 521V545H939ZM983 545C981 545 978 545 976 544C974 543 972 541 971 540C970 538 969 535 969 532C969 530 969 528 970 526C971 525 972 523 974 522C975 521 977 520 979 520C981 519 983 519 985 519C988 519 990 518 991 518C993 518 994 517 995 517C995 516 996 516 996 515V515C996 513 995 512 994 511C993 511 992 510 990 510C988 510 987 511 986 511C984 512 984 513 983 515L971 514C971 512 972 509 974 507C975 505 977 503 980 502C983 501 986 500 990 500C993 500 995 501 998 501C1000 502 1002 503 1004 504C1006 505 1007 507 1008 509C1009 510 1009 513 1009 515V545H996V538H996C995 540 994 541 993 542C992 543 990 544 989 544C987 545 985 545 983 545ZM988 536C989 536 990 536 992 535C993 535 994 534 995 533C995 532 996 530 996 529V525C995 525 995 525 994 525C994 526 993 526 992 526C992 526 991 526 990 526C990 526 989 527 988 527C987 527 986 527 985 528C984 528 983 529 983 529C982 530 982 531 982 532C982 533 983 534 984 535C985 536 986 536 988 536ZM1043 501V511H1015V501H1043ZM1021 490H1035V531C1035 532 1035 532 1035 533C1035 533 1036 534 1036 534C1037 534 1037 534 1038 534C1039 534 1039 534 1040 534C1041 534 1041 534 1041 534L1043 544C1043 544 1042 544 1041 545C1039 545 1038 545 1036 545C1033 545 1030 545 1028 544C1026 543 1024 542 1023 540C1021 538 1021 535 1021 532V490ZM1070 545C1065 545 1061 544 1058 543C1054 541 1052 538 1050 535C1048 531 1048 527 1048 523C1048 518 1048 514 1050 511C1052 508 1054 505 1058 503C1061 501 1065 500 1070 500C1074 500 1078 501 1081 503C1085 505 1087 508 1089 511C1091 514 1092 518 1092 523C1092 527 1091 531 1089 535C1087 538 1085 541 1081 543C1078 544 1074 545 1070 545ZM1070 535C1071 535 1073 534 1074 533C1075 532 1076 531 1077 529C1077 527 1077 525 1077 523C1077 520 1077 518 1077 516C1076 515 1075 513 1074 512C1073 511 1071 511 1070 511C1068 511 1066 511 1065 512C1064 513 1063 515 1063 516C1062 518 1062 520 1062 523C1062 525 1062 527 1063 529C1063 531 1064 532 1065 533C1066 534 1068 535 1070 535ZM1099 545V501H1112V509H1113C1113 506 1115 504 1117 502C1118 501 1120 500 1123 500C1123 500 1124 500 1125 500C1126 500 1126 501 1127 501V513C1126 513 1125 512 1124 512C1123 512 1122 512 1121 512C1120 512 1118 512 1117 513C1116 514 1114 515 1114 516C1113 518 1113 519 1113 521V545H1099ZM1142 561C1141 561 1139 561 1137 560C1136 560 1135 560 1134 559L1137 549C1138 550 1139 550 1140 550C1142 550 1143 550 1143 550C1144 549 1145 548 1145 547L1146 546L1130 501H1145L1153 532H1153L1161 501H1176L1160 549C1159 551 1158 553 1156 555C1155 557 1153 558 1151 559C1148 560 1146 561 1142 561Z" fill="#E0DADA"/>
</svg>
